# xmcd
#
# Track frame offsets:
#	150
#	14337
#	33900
#	47427
#
# Disc length: 937 seconds
#
# Revision: 0
# Processed by: cddbd v1.5.2PL0 Copyright (c) Steve Scherf et al.
# Submitted via: audiograbber 1.83.01
#
DISCID=2303a704
DTITLE=The Mavericks - I Don't Care If You Love Me Anymore
DYEAR=1996
DGENRE=Country
TTITLE0=I Don't Care If You Love Me Anymore
TTITLE1=All You Ever Do Is Bring Me Down
TTITLE2=Something Stupid
TTITLE3=Children
EXTD=
EXTT0=
EXTT1=
EXTT2=
EXTT3=
PLAYORDER=
